<?xml version="1.0" ?><!DOCTYPE svg  PUBLIC '-//W3C//DTD SVG 1.1//EN'  'http://www.w3.org/Graphics/SVG/1.1/DTD/svg11.dtd'><svg width="24px" height="24px" viewBox="0 0 24 24" enable-background="new 0 0 24 24" version="1.1" xml:space="preserve" xmlns="http://www.w3.org/2000/svg" xmlns:xlink="http://www.w3.org/1999/xlink"><g id="Layer_27"/><g id="Layer_2"/><g id="Layer_3"/><g id="Layer_4"/><g id="Layer_5"/><g id="Layer_6"/><g id="Layer_7"/><g id="Layer_8"/><g id="Layer_9"/><g id="Layer_10"/><g id="Layer_11"/><g id="Layer_12"/><g id="Layer_13"/><g id="Layer_14"/><g id="Layer_15"/><g id="Layer_16"><g id="Layer_17"/></g><g id="Layer_18"/><g id="Layer_19"/><g id="Layer_20"/><g id="Layer_21"><g><path d="M22,14v2c0,1.65-1.35,3-3,3h-5.23c-0.37,0-0.71-0.2-0.88-0.53l-2.12-4c-0.17-0.31-0.16-0.68,0.02-0.99    c0.18-0.3,0.51-0.48,0.86-0.48H21C21.55,13,22,13.45,22,14z" fill="#FFBF42"/></g><g><path d="M21.3,9.58C21.11,9.84,20.8,10,20.48,10h-8.16c-0.51,0-0.76,0.34-0.85,0.48    c-0.09,0.15-0.27,0.54-0.03,0.99l4.51,8.52c0.14,0.26,0.16,0.56,0.05,0.83c-0.1,0.27-0.32,0.48-0.59,0.58    c-1.05,0.38-2.14,0.58-3.25,0.6h-0.15c-5.26,0-9.75-4.27-10-9.51c-0.13-2.77,0.85-5.4,2.76-7.4C6.67,3.1,9.24,2,12,2    c4.23,0,8.02,2.68,9.42,6.67C21.53,8.97,21.48,9.31,21.3,9.58z" fill="#6059B1"/></g><g><circle cx="7.5" cy="14.5" fill="#85C756" r="1.5"/></g></g><g id="Layer_22"/><g id="Layer_23"/><g id="Layer_24"/><g id="Layer_25"/><g id="Layer_26"/></svg>