<?xml version="1.0" ?><!DOCTYPE svg  PUBLIC '-//W3C//DTD SVG 1.1//EN'  'http://www.w3.org/Graphics/SVG/1.1/DTD/svg11.dtd'><svg width="32px" height="32px" viewBox="0 0 32 32" enable-background="new 0 0 32 32" version="1.1" xml:space="preserve" xmlns="http://www.w3.org/2000/svg" xmlns:xlink="http://www.w3.org/1999/xlink"><g id="Security02"/><g id="Security03"/><g id="Security04"/><g id="Security05"/><g id="Security06"/><g id="Security07"/><g id="Security08"><g><path d="M12,26v4c0,0.55-0.45,1-1,1H6c-0.55,0-1-0.45-1-1v-4c0-0.55,0.45-1,1-1h5C11.55,25,12,25.45,12,26z" fill="#FFC10A"/></g><g><path d="M27,26v4c0,0.55-0.45,1-1,1h-5c-0.55,0-1-0.45-1-1v-4c0-0.55,0.45-1,1-1h5C26.55,25,27,25.45,27,26z" fill="#FFC10A"/></g><g><path d="M31,4v20c0,1.65-1.35,3-3,3H4c-1.65,0-3-1.35-3-3V4c0-1.65,1.35-3,3-3h24C29.65,1,31,2.35,31,4z" fill="#3F51B5"/></g><g><path d="M6,17c-0.5527,0-1-0.4473-1-1v-4c0-0.5527,0.4473-1,1-1s1,0.4473,1,1v4C7,16.5527,6.5527,17,6,17z" fill="#231F20"/></g><g><path d="M27,6v16c0,0.55-0.45,1-1,1H6c-0.55,0-1-0.45-1-1V6c0-0.55,0.45-1,1-1h20C26.55,5,27,5.45,27,6z" fill="#2197F3"/></g><g><path d="M13,9v3c0,0.55-0.45,1-1,1H5V8h7C12.55,8,13,8.45,13,9z" fill="#3F51B5"/></g><g><path d="M13,16v3c0,0.55-0.45,1-1,1H5v-5h7C12.55,15,13,15.45,13,16z" fill="#3F51B5"/></g><path d="M22,12c0,1.3-0.84,2.4-2,2.82V18c0,0.55-0.45,1-1,1s-1-0.45-1-1v-3.18c-1.16-0.42-2-1.52-2-2.82   c0-1.65,1.35-3,3-3S22,10.35,22,12z" fill="#FFFFFF"/></g><g id="Security09"/><g id="Security10"/><g id="Security11"/><g id="Security12"/><g id="Security13"/><g id="Security14"/><g id="Security15"/><g id="Security16"/><g id="Security17"/><g id="Security18"/><g id="Security19"/><g id="Security20"/><g id="Security21"/></svg>