<?xml version="1.0" ?><!DOCTYPE svg  PUBLIC '-//W3C//DTD SVG 1.1//EN'  'http://www.w3.org/Graphics/SVG/1.1/DTD/svg11.dtd'><svg width="24px" height="24px" viewBox="0 0 24 24" enable-background="new 0 0 24 24" version="1.1" xml:space="preserve" xmlns="http://www.w3.org/2000/svg" xmlns:xlink="http://www.w3.org/1999/xlink"><g id="Layer_27"/><g id="Layer_2"/><g id="Layer_3"/><g id="Layer_4"/><g id="Layer_5"/><g id="Layer_6"/><g id="Layer_7"/><g id="Layer_8"/><g id="Layer_9"/><g id="Layer_10"/><g id="Layer_11"/><g id="Layer_12"/><g id="Layer_13"/><g id="Layer_14"/><g id="Layer_15"/><g id="Layer_16"><g id="Layer_17"/></g><g id="Layer_18"><path d="M22,9v12c0,0.55-0.45,1-1,1H7c-0.55,0-1-0.45-1-1v-3H5c-1.65,0-3-1.35-3-3v-4c0-1.65,1.35-3,3-3h1   c0-3.31,2.82-6,6.29-6h3.42C19.65,2,22,4.62,22,9z" fill="#624F81"/><g><path d="M8,9v8c0,0.55-0.45,1-1,1H5c-1.65,0-3-1.35-3-3v-4c0-1.65,1.35-3,3-3h2C7.55,8,8,8.45,8,9z" fill="#1777BA"/></g><g><path d="M22,9v9H6V8c0-3.31,2.82-6,6.29-6h3.42C19.65,2,22,4.62,22,9z" fill="#189CD8"/></g></g><g id="Layer_19"/><g id="Layer_20"/><g id="Layer_21"/><g id="Layer_22"/><g id="Layer_23"/><g id="Layer_24"/><g id="Layer_25"/><g id="Layer_26"/></svg>