<?xml version="1.0" encoding="utf-8"?>

<!DOCTYPE svg PUBLIC "-//W3C//DTD SVG 1.1//EN" "http://www.w3.org/Graphics/SVG/1.1/DTD/svg11.dtd">
<svg version="1.1" id="Слой_1" xmlns="http://www.w3.org/2000/svg" xmlns:xlink="http://www.w3.org/1999/xlink" x="0px" y="0px"
	 width="64px" height="64px" viewBox="0 0 64 64" enable-background="new 0 0 64 64" xml:space="preserve">
<g>
	<path fill="#4572ED" d="M14,48.75c-2.757,0-5-2.243-5-5s2.243-5,5-5s5,2.243,5,5S16.757,48.75,14,48.75z M14,40.75
		c-1.654,0-3,1.346-3,3s1.346,3,3,3s3-1.346,3-3S15.654,40.75,14,40.75z"/>
</g>
<g>
	<path fill="#2AB27B" d="M3.5,7C1.57,7,0,5.43,0,3.5S1.57,0,3.5,0S7,1.571,7,3.5S5.43,7,3.5,7z M3.5,2C2.673,2,2,2.673,2,3.5
		S2.673,5,3.5,5S5,4.328,5,3.5S4.327,2,3.5,2z"/>
</g>
<g>
	<path fill="#2AB27B" d="M15,16.25c-3.859,0-7-3.14-7-7s3.141-7,7-7s7,3.14,7,7S18.859,16.25,15,16.25z M15,4.25
		c-2.757,0-5,2.243-5,5s2.243,5,5,5s5-2.243,5-5S17.757,4.25,15,4.25z"/>
</g>
<g>
	<path fill="#2AB27B" d="M15,13.25c-0.553,0-1-0.448-1-1s0.447-1,1-1c1.103,0,2-0.897,2-2s-0.897-2-2-2c-0.553,0-1-0.448-1-1
		s0.447-1,1-1c2.206,0,4,1.794,4,4S17.206,13.25,15,13.25z"/>
</g>
<g>
	<path fill="#2AB27B" d="M6,22.75c0.552,0,1,0.448,1,1s-0.448,1-1,1s-1-0.448-1-1S5.448,22.75,6,22.75 M6,20.75
		c-1.654,0-3,1.346-3,3s1.346,3,3,3s3-1.346,3-3S7.654,20.75,6,20.75L6,20.75z"/>
</g>
<g>
	<path fill="#2AB27B" d="M39,10.75c0.552,0,1,0.448,1,1c0,0.552-0.448,1-1,1s-1-0.448-1-1C38,11.198,38.448,10.75,39,10.75 M39,8.75
		c-1.654,0-3,1.346-3,3s1.346,3,3,3s3-1.346,3-3S40.654,8.75,39,8.75L39,8.75z"/>
</g>
<g>
	<path fill="#4572ED" d="M50,48.75c-2.757,0-5-2.243-5-5s2.243-5,5-5s5,2.243,5,5S52.757,48.75,50,48.75z M50,40.75
		c-1.654,0-3,1.346-3,3s1.346,3,3,3s3-1.346,3-3S51.654,40.75,50,40.75z"/>
</g>
<g>
	<path fill="#4572ED" d="M56.263,20.779c-4.266,0-7.736-3.471-7.736-7.737c0-2.875,3.205-7.769,5.895-11.368
		c0.438-0.586,1.109-0.923,1.842-0.923c0.733,0,1.405,0.336,1.843,0.923C60.795,5.273,64,10.167,64,13.042
		C64,17.308,60.529,20.779,56.263,20.779z M56.263,2.75c-0.056,0-0.162,0.016-0.24,0.12c-3.441,4.607-5.496,8.409-5.496,10.171
		c0,3.164,2.573,5.737,5.736,5.737S62,16.205,62,13.042c0-1.762-2.055-5.564-5.496-10.171C56.426,2.766,56.319,2.75,56.263,2.75z"/>
</g>
<g>
	<path fill="#4572ED" d="M12.355,63.999H7.645C6.187,63.999,5,62.813,5,61.355v-3.356c0-0.553,0.447-1,1-1s1,0.447,1,1v3.356
		c0,0.354,0.289,0.644,0.645,0.644h4.711c0.355,0,0.645-0.289,0.645-0.644v-1.356c0-0.553,0.447-1,1-1s1,0.447,1,1v1.356
		C15,62.813,13.813,63.999,12.355,63.999z"/>
</g>
<g>
	<path fill="#4572ED" d="M56.355,63.999h-4.711c-1.458,0-2.645-1.186-2.645-2.644v-1.356c0-0.553,0.447-1,1-1s1,0.447,1,1v1.356
		c0,0.354,0.289,0.644,0.645,0.644h4.711c0.355,0,0.645-0.289,0.645-0.644v-3.356c0-0.553,0.447-1,1-1s1,0.447,1,1v3.356
		C59,62.813,57.813,63.999,56.355,63.999z"/>
</g>
<g>
	<path fill="#4572ED" d="M52.115,55.75h-40.23C6.985,55.75,3,51.765,3,46.865c0-0.06,0.005-0.118,0.016-0.177l1.611-8.957
		c0.311-1.728,1.811-2.981,3.566-2.981h47.613c1.756,0,3.256,1.254,3.566,2.981l1.611,8.957C60.995,46.747,61,46.806,61,46.865
		C61,51.765,57.015,55.75,52.115,55.75z M5.001,46.951c0.046,3.757,3.116,6.799,6.884,6.799h40.23c3.768,0,6.838-3.042,6.884-6.799
		l-1.595-8.866c-0.139-0.773-0.811-1.335-1.598-1.335H8.193c-0.787,0-1.459,0.562-1.598,1.335L5.001,46.951z"/>
</g>
<g>
	<path fill="#4572ED" d="M54.001,31.75c-0.378,0-0.739-0.215-0.908-0.58c-0.072-0.156-0.638-1.173-4.853-7.678
		c-1.112-1.717-2.998-2.742-5.046-2.742H20.851c-2.067,0-3.964,1.042-5.074,2.786l-4.933,7.751
		c-0.296,0.465-0.913,0.603-1.381,0.307c-0.466-0.297-0.604-0.915-0.307-1.381l4.933-7.751c1.479-2.324,4.007-3.712,6.762-3.712
		h22.344c2.729,0,5.242,1.366,6.725,3.654c4.619,7.129,4.897,7.729,4.988,7.926c0.232,0.501,0.015,1.095-0.487,1.327
		C54.284,31.721,54.142,31.75,54.001,31.75z"/>
</g>
<g>
	<path fill="#4572ED" d="M63,31.75h-5c-0.553,0-1-0.447-1-1s0.447-1,1-1h5c0.553,0,1,0.447,1,1S63.553,31.75,63,31.75z"/>
</g>
<g>
	<path fill="#4572ED" d="M6,31.75H1c-0.553,0-1-0.447-1-1s0.447-1,1-1h5c0.553,0,1,0.447,1,1S6.553,31.75,6,31.75z"/>
</g>
<g>
	<path fill="#4572ED" d="M41,44.75H23c-0.553,0-1-0.447-1-1s0.447-1,1-1h18c0.553,0,1,0.447,1,1S41.553,44.75,41,44.75z"/>
</g>
<g>
	<path fill="#4572ED" d="M32,48.248c-1.736,0-3.473-0.173-5.196-0.518c-0.541-0.108-0.893-0.635-0.784-1.177
		c0.107-0.542,0.637-0.897,1.177-0.784c3.188,0.637,6.42,0.637,9.607,0c0.549-0.113,1.069,0.243,1.177,0.784
		c0.108,0.542-0.243,1.068-0.784,1.177C35.473,48.075,33.736,48.248,32,48.248z"/>
</g>
<g>
	<path fill="#4572ED" d="M37,25.75H27c-0.553,0-1-0.448-1-1s0.447-1,1-1h10c0.553,0,1,0.448,1,1S37.553,25.75,37,25.75z"/>
</g>
<g>
	<path fill="#2AB27B" d="M30,15.75h-4c-0.553,0-1-0.448-1-1s0.447-1,1-1h4c0.553,0,1,0.448,1,1S30.553,15.75,30,15.75z"/>
</g>
<g>
	<path fill="#2AB27B" d="M28,17.75c-0.553,0-1-0.448-1-1v-4c0-0.552,0.447-1,1-1s1,0.448,1,1v4C29,17.302,28.553,17.75,28,17.75z"/>
</g>
<g>
	<path fill="#2AB27B" d="M47,30.75h-4c-0.553,0-1-0.447-1-1c0-0.552,0.447-1,1-1h4c0.553,0,1,0.448,1,1
		C48,30.303,47.553,30.75,47,30.75z"/>
</g>
<g>
	<path fill="#2AB27B" d="M45,32.75c-0.553,0-1-0.447-1-1v-4c0-0.552,0.447-1,1-1s1,0.448,1,1v4C46,32.303,45.553,32.75,45,32.75z"/>
</g>
</svg>
