<?xml version="1.0" encoding="utf-8"?>

<!DOCTYPE svg PUBLIC "-//W3C//DTD SVG 1.1//EN" "http://www.w3.org/Graphics/SVG/1.1/DTD/svg11.dtd">
<svg version="1.1" id="Слой_1" xmlns="http://www.w3.org/2000/svg" xmlns:xlink="http://www.w3.org/1999/xlink" x="0px" y="0px"
	 width="64px" height="64px" viewBox="0 0 64 64" enable-background="new 0 0 64 64" xml:space="preserve">
<g>
	<path fill="#2AB27B" d="M21,10h-4c-0.553,0-1-0.448-1-1s0.447-1,1-1h4c0.553,0,1,0.448,1,1S21.553,10,21,10z"/>
</g>
<g>
	<path fill="#2AB27B" d="M19,12c-0.553,0-1-0.448-1-1V7c0-0.552,0.447-1,1-1s1,0.448,1,1v4C20,11.552,19.553,12,19,12z"/>
</g>
<g>
	<path fill="#4572ED" d="M14,30c-2.757,0-5-2.243-5-5s2.243-5,5-5s5,2.243,5,5S16.757,30,14,30z M14,22c-1.654,0-3,1.346-3,3
		s1.346,3,3,3s3-1.346,3-3S15.654,22,14,22z"/>
</g>
<g>
	<path fill="#4572ED" d="M50,30c-2.757,0-5-2.243-5-5s2.243-5,5-5s5,2.243,5,5S52.757,30,50,30z M50,22c-1.654,0-3,1.346-3,3
		s1.346,3,3,3s3-1.346,3-3S51.654,22,50,22z"/>
</g>
<g>
	<path fill="#4572ED" d="M12.355,45H7.645C6.187,45,5,43.813,5,42.355V39c0-0.553,0.447-1,1-1s1,0.447,1,1v3.355
		C7,42.711,7.289,43,7.645,43h4.711C12.711,43,13,42.711,13,42.355V41c0-0.553,0.447-1,1-1s1,0.447,1,1v1.355
		C15,43.813,13.813,45,12.355,45z"/>
</g>
<g>
	<path fill="#4572ED" d="M56.355,63.999h-4.712c-1.458,0-2.645-1.186-2.645-2.644v-1.356c0-0.553,0.447-1,1-1s1,0.447,1,1v1.356
		c0,0.354,0.289,0.644,0.645,0.644h4.712c0.354,0,0.644-0.289,0.644-0.644v-3.356c0-0.553,0.447-1,1-1s1,0.447,1,1v3.356
		C58.999,62.813,57.813,63.999,56.355,63.999z"/>
</g>
<g>
	<path fill="#4572ED" d="M52.115,37h-40.23C6.985,37,3,33.015,3,28.116c0-0.06,0.005-0.119,0.016-0.177l1.611-8.957
		C4.938,17.254,6.438,16,8.193,16h47.613c1.756,0,3.256,1.254,3.566,2.982l1.611,8.957C60.995,27.997,61,28.056,61,28.116
		C61,33.015,57.015,37,52.115,37z M5.001,28.202C5.047,31.959,8.117,35,11.885,35h40.23c3.768,0,6.838-3.041,6.884-6.798
		l-1.595-8.866C57.266,18.562,56.594,18,55.807,18H8.193c-0.787,0-1.459,0.562-1.598,1.335L5.001,28.202z"/>
</g>
<g>
	<path fill="#4572ED" d="M54.001,13c-0.378,0-0.739-0.215-0.908-0.58c-0.072-0.155-0.635-1.168-4.853-7.678
		C47.128,3.025,45.242,2,43.194,2H20.851c-2.067,0-3.964,1.042-5.074,2.786l-4.933,7.751c-0.296,0.466-0.913,0.604-1.381,0.307
		c-0.466-0.296-0.604-0.915-0.307-1.381l4.933-7.751C15.568,1.388,18.096,0,20.851,0h22.344c2.729,0,5.242,1.366,6.724,3.654
		c4.623,7.135,4.899,7.73,4.989,7.926c0.232,0.501,0.014,1.095-0.487,1.328C54.284,12.97,54.142,13,54.001,13z"/>
</g>
<g>
	<path fill="#4572ED" d="M63,13h-5c-0.553,0-1-0.448-1-1s0.447-1,1-1h5c0.553,0,1,0.448,1,1S63.553,13,63,13z"/>
</g>
<g>
	<path fill="#4572ED" d="M6,13H1c-0.553,0-1-0.448-1-1s0.447-1,1-1h5c0.553,0,1,0.448,1,1S6.553,13,6,13z"/>
</g>
<g>
	<path fill="#4572ED" d="M41,26H23c-0.553,0-1-0.448-1-1s0.447-1,1-1h18c0.553,0,1,0.448,1,1S41.553,26,41,26z"/>
</g>
<g>
	<path fill="#4572ED" d="M32,29.498c-1.736,0-3.473-0.172-5.196-0.517c-0.541-0.108-0.893-0.635-0.784-1.177
		s0.635-0.891,1.177-0.784c3.188,0.638,6.42,0.638,9.607,0c0.549-0.11,1.069,0.244,1.177,0.784c0.108,0.542-0.243,1.068-0.784,1.177
		C35.473,29.325,33.736,29.498,32,29.498z"/>
</g>
<g>
	<path fill="#4572ED" d="M37,7H27c-0.553,0-1-0.448-1-1s0.447-1,1-1h10c0.553,0,1,0.448,1,1S37.553,7,37,7z"/>
</g>
<g>
	<path fill="#2AB27B" d="M52,45.5c-0.256,0-0.512-0.098-0.707-0.293c-0.391-0.391-0.391-1.023,0-1.414l5-5
		c0.391-0.391,1.023-0.391,1.414,0s0.391,1.023,0,1.414l-5,5C52.512,45.402,52.256,45.5,52,45.5z"/>
</g>
<g>
	<path fill="#2AB27B" d="M57,45.5c-0.256,0-0.512-0.098-0.707-0.293l-5-5c-0.391-0.391-0.391-1.023,0-1.414s1.023-0.391,1.414,0l5,5
		c0.391,0.391,0.391,1.023,0,1.414C57.512,45.402,57.256,45.5,57,45.5z"/>
</g>
<g>
	<path fill="#2AB27B" d="M57,54.999c-0.553,0-1-0.447-1-1v-5.998c0-0.553,0.447-1,1-1s1,0.447,1,1v5.998
		C58,54.552,57.553,54.999,57,54.999z"/>
</g>
<g>
	<path fill="#2AB27B" d="M52,54.001c-0.553,0-1-0.447-1-1v-5.002c0-0.553,0.447-1,1-1s1,0.447,1,1v5.002
		C53,53.554,52.553,54.001,52,54.001z"/>
</g>
<g>
	<path fill="#2AB27B" d="M52,56.999c-0.553,0-1-0.445-1-0.998v-0.005c0-0.553,0.447-1,1-1s1,0.447,1,1S52.553,56.999,52,56.999z"/>
</g>
<g>
	<path fill="#4572ED" d="M36,55h-8c-0.553,0-1-0.447-1-1V44c0-0.553,0.447-1,1-1h8c0.553,0,1,0.447,1,1v10
		C37,54.553,36.553,55,36,55z M29,53h6v-8h-6V53z"/>
</g>
<g>
	<path fill="#4572ED" d="M41,64H23c-0.553,0-1-0.447-1-1v-5c0-0.553,0.447-1,1-1h18c0.553,0,1,0.447,1,1v5
		C42,63.553,41.553,64,41,64z M24,62h16v-3H24V62z"/>
</g>
<g>
	<path fill="#2AB27B" d="M42.999,44c-0.493,0-0.922-0.364-0.99-0.866l-0.29-2.15H22.281l-0.29,2.15
		c-0.074,0.547-0.579,0.926-1.125,0.857c-0.547-0.074-0.931-0.578-0.857-1.125l0.407-3.017c0.067-0.496,0.49-0.866,0.991-0.866
		h21.186c0.501,0,0.924,0.37,0.991,0.866l0.407,3.017c0.073,0.547-0.311,1.051-0.857,1.125C43.089,43.997,43.043,44,42.999,44z"/>
</g>
<g>
	<path fill="#4572ED" d="M28,51c-0.256,0-0.512-0.098-0.707-0.293c-0.391-0.391-0.391-1.023,0-1.414l6-6
		c0.391-0.391,1.023-0.391,1.414,0s0.391,1.023,0,1.414l-6,6C28.512,50.902,28.256,51,28,51z"/>
</g>
<g>
	<path fill="#4572ED" d="M30,55c-0.256,0-0.512-0.098-0.707-0.293c-0.391-0.391-0.391-1.023,0-1.414l6-6
		c0.391-0.391,1.023-0.391,1.414,0s0.391,1.023,0,1.414l-6,6C30.512,54.902,30.256,55,30,55z"/>
</g>
</svg>
