<?xml version="1.0" ?><!DOCTYPE svg  PUBLIC '-//W3C//DTD SVG 1.1//EN'  'http://www.w3.org/Graphics/SVG/1.1/DTD/svg11.dtd'><svg width="32px" height="32px" viewBox="0 0 32 32" enable-background="new 0 0 32 32" version="1.1" xml:space="preserve" xmlns="http://www.w3.org/2000/svg" xmlns:xlink="http://www.w3.org/1999/xlink"><g id="Files_Folder40"/><g id="Files_Folder39"/><g id="Files_Folder38"/><g id="Files_Folder37"/><g id="Files_Folder36"/><g id="Files_Folder35"/><g id="Files_Folder34"/><g id="Files_Folder33"/><g id="Files_Folder32"/><g id="Files_Folder31"/><g id="Files_Folder30"/><g id="Files_Folder29"/><g id="Files_Folder28"/><g id="Files_Folder27"/><g id="Files_Folder26"/><g id="Files_Folder25"/><g id="Files_Folder24"/><g id="Files_Folder23"/><g id="Files_Folder22"/><g id="Files_Folder21"/><g id="Files_Folder20"/><g id="Files_Folder19"/><g id="Files_Folder18"/><g id="Files_Folder17"/><g id="Files_Folder16"/><g id="Files_Folder15"/><g id="Files_Folder14"/><g id="Files_Folder13"><g><g><g><path d="M27,6v22c0,1.65-1.35,3-3,3H8c-1.65,0-3-1.35-3-3V6c0-1.65,1.35-3,3-3h16C25.65,3,27,4.35,27,6z" fill="#FFC10A"/></g></g><g><g><path d="M21,3v2c0,1.1-0.9,2-2,2h-6c-1.1,0-2-0.9-2-2V3c0-1.1,0.9-2,2-2h6C20.1,1,21,1.9,21,3z" fill="#FE9803"/></g></g></g><g><path d="M14.6362,22c-0.0073,0-0.0142,0-0.0215,0c-0.3125-0.0068-0.6035-0.1592-0.7871-0.4116l-3.6362-5    c-0.3252-0.4468-0.2261-1.0723,0.2202-1.397c0.4463-0.3257,1.0728-0.2266,1.397,0.2202l2.8633,3.937l5.5459-6.9712    c0.3428-0.4312,0.9727-0.5049,1.4043-0.1602c0.4326,0.3438,0.5039,0.9731,0.1602,1.4053l-6.3633,8    C15.229,21.8613,14.9404,22,14.6362,22z" fill="#FE9803"/></g></g><g id="Files_Folder12"/><g id="Files_Folder11"/><g id="Files_Folder10"/><g id="Files_Folder09"/><g id="Files_Folder08"/><g id="Files_Folder07"/><g id="Files_Folder06"/><g id="Files_Folder05"/><g id="Files_Folder04"/><g id="Files_Folder03"/><g id="Files_Folder02"/><g id="Files_Folder01"/></svg>