<?xml version="1.0" ?><!DOCTYPE svg  PUBLIC '-//W3C//DTD SVG 1.1//EN'  'http://www.w3.org/Graphics/SVG/1.1/DTD/svg11.dtd'><svg width="32px" height="32px" viewBox="0 0 32 32" enable-background="new 0 0 32 32" version="1.1" xml:space="preserve" xmlns="http://www.w3.org/2000/svg" xmlns:xlink="http://www.w3.org/1999/xlink"><g id="Security02"/><g id="Security03"/><g id="Security04"/><g id="Security05"/><g id="Security06"/><g id="Security07"/><g id="Security08"/><g id="Security09"/><g id="Security10"/><g id="Security11"/><g id="Security12"/><g id="Security13"/><g id="Security14"/><g id="Security15"/><g id="Security16"/><g id="Security17"/><g id="Security18"/><g id="Security19"><g><g><path d="M31,8c0,0.09-0.02,3.14-0.76,7c-0.12,0.65-0.27,1.32-0.44,2c-1.52,6.19-4.97,13.4-12.8,13.96     C16.68,30.99,16.34,31,16,31s-0.68-0.01-1-0.04C7.17,30.4,3.72,23.19,2.2,17c-0.17-0.68-0.32-1.35-0.44-2C1.02,11.14,1,8.09,1,8     c0-0.4,0.24-0.76,0.61-0.92L15,1.34l0.61-0.26c0.25-0.11,0.53-0.11,0.78,0L17,1.34l13.39,5.74C30.76,7.24,31,7.6,31,8z" fill="#2197F3"/></g></g><path d="M30.24,15c-0.12,0.65-0.27,1.32-0.44,2H17v13.96C16.68,30.99,16.34,31,16,31s-0.68-0.01-1-0.04V17H2.2   c-0.17-0.68-0.32-1.35-0.44-2H15V1.34l0.61-0.26c0.25-0.11,0.53-0.11,0.78,0L17,1.34V15H30.24z" fill="#FFFFFF"/></g><g id="Security20"/><g id="Security21"/></svg>