<?xml version="1.0" ?><!DOCTYPE svg  PUBLIC '-//W3C//DTD SVG 1.1//EN'  'http://www.w3.org/Graphics/SVG/1.1/DTD/svg11.dtd'><svg width="32px" height="32px" viewBox="0 0 32 32" enable-background="new 0 0 32 32" version="1.1" xml:space="preserve" xmlns="http://www.w3.org/2000/svg" xmlns:xlink="http://www.w3.org/1999/xlink"><g id="Security02"/><g id="Security03"/><g id="Security04"/><g id="Security05"/><g id="Security06"/><g id="Security07"/><g id="Security08"/><g id="Security09"/><g id="Security10"/><g id="Security11"/><g id="Security12"/><g id="Security13"/><g id="Security14"/><g id="Security15"/><g id="Security16"/><g id="Security17"/><g id="Security18"><g><path d="M31,8c0,0.23-0.17,23-15,23S1,8.23,1,8c0-0.4,0.24-0.76,0.61-0.92l14-6c0.25-0.11,0.53-0.11,0.78,0l14,6    C30.76,7.24,31,7.6,31,8z" fill="#2197F3"/></g><path d="M17.4141,16l4.293-4.293c0.3906-0.3906,0.3906-1.0234,0-1.4141s-1.0234-0.3906-1.4141,0L16,14.5859   l-4.293-4.293c-0.3906-0.3906-1.0234-0.3906-1.4141,0s-0.3906,1.0234,0,1.4141L14.5859,16l-4.293,4.293   c-0.3906,0.3906-0.3906,1.0234,0,1.4141C10.4883,21.9023,10.7441,22,11,22s0.5117-0.0977,0.707-0.293L16,17.4141l4.293,4.293   C20.4883,21.9023,20.7441,22,21,22s0.5117-0.0977,0.707-0.293c0.3906-0.3906,0.3906-1.0234,0-1.4141L17.4141,16z" fill="#FFFFFF"/></g><g id="Security19"/><g id="Security20"/><g id="Security21"/></svg>