<?xml version="1.0" ?><!DOCTYPE svg  PUBLIC '-//W3C//DTD SVG 1.1//EN'  'http://www.w3.org/Graphics/SVG/1.1/DTD/svg11.dtd'><svg width="32px" height="32px" viewBox="0 0 32 32" enable-background="new 0 0 32 32" version="1.1" xml:space="preserve" xmlns="http://www.w3.org/2000/svg" xmlns:xlink="http://www.w3.org/1999/xlink"><g id="Security02"/><g id="Security03"/><g id="Security04"/><g id="Security05"/><g id="Security06"/><g id="Security07"/><g id="Security08"/><g id="Security09"/><g id="Security10"/><g id="Security11"/><g id="Security12"/><g id="Security13"/><g id="Security14"/><g id="Security15"/><g id="Security16"/><g id="Security17"/><g id="Security18"/><g id="Security19"/><g id="Security20"><g><path d="M31,8c0,0.23-0.17,23-15,23S1,8.23,1,8c0-0.4,0.24-0.76,0.61-0.92l14-6c0.25-0.11,0.53-0.11,0.78,0l14,6    C30.76,7.24,31,7.6,31,8z" fill="#2197F3"/></g><g><path d="M14.2891,22c-0.0039,0-0.0078,0-0.0112,0c-0.3145-0.0034-0.6084-0.1548-0.7944-0.4077l-4.2891-5.8335    c-0.3271-0.4448-0.2314-1.0708,0.2134-1.3979c0.4448-0.3286,1.0713-0.231,1.3979,0.2134l3.5024,4.7637l6.8999-8.9487    c0.3369-0.4375,0.9653-0.519,1.4028-0.1812c0.437,0.3374,0.5186,0.9653,0.1812,1.4028l-7.7109,10    C14.8916,21.8564,14.5991,22,14.2891,22z" fill="#FFFFFF"/></g></g><g id="Security21"/></svg>