<?xml version="1.0" ?><!DOCTYPE svg  PUBLIC '-//W3C//DTD SVG 1.1//EN'  'http://www.w3.org/Graphics/SVG/1.1/DTD/svg11.dtd'><svg width="32px" height="32px" viewBox="0 0 32 32" enable-background="new 0 0 32 32" version="1.1" xml:space="preserve" xmlns="http://www.w3.org/2000/svg" xmlns:xlink="http://www.w3.org/1999/xlink"><g id="Security02"/><g id="Security03"/><g id="Security04"/><g id="Security05"/><g id="Security06"/><g id="Security07"/><g id="Security08"/><g id="Security09"/><g id="Security10"/><g id="Security11"/><g id="Security12"/><g id="Security13"/><g id="Security14"/><g id="Security15"><g><path d="M23,17H9c-0.5522,0-1-0.4478-1-1V9c0-4.4111,3.5889-8,8-8s8,3.5889,8,8v7C24,16.5522,23.5522,17,23,17z     M10,15h12V9c0-3.3086-2.6914-6-6-6s-6,2.6914-6,6V15z" fill="#FFC10A"/></g><g><path d="M27,16v6c0,4.96-4.04,9-9,9h-4c-4.96,0-9-4.04-9-9v-6c0-0.55,0.45-1,1-1h20C26.55,15,27,15.45,27,16z" fill="#2197F3"/></g><g><path d="M14.8594,27c-0.0039,0-0.0078,0-0.0117,0c-0.2959-0.0034-0.5752-0.1382-0.7627-0.3672l-2.8594-3.5    c-0.3496-0.4277-0.2861-1.0576,0.1416-1.4072c0.4277-0.3486,1.0576-0.2856,1.4072,0.1416l2.103,2.5747l4.3633-5.0923    c0.3604-0.4199,0.9917-0.4673,1.4097-0.1089c0.4194,0.3594,0.4683,0.9907,0.1089,1.4097l-5.1406,6    C15.4287,26.8726,15.1514,27,14.8594,27z" fill="#FFFFFF"/></g></g><g id="Security16"/><g id="Security17"/><g id="Security18"/><g id="Security19"/><g id="Security20"/><g id="Security21"/></svg>