<?xml version="1.0" ?><!DOCTYPE svg  PUBLIC '-//W3C//DTD SVG 1.1//EN'  'http://www.w3.org/Graphics/SVG/1.1/DTD/svg11.dtd'><svg width="32px" height="32px" viewBox="0 0 32 32" enable-background="new 0 0 32 32" version="1.1" xml:space="preserve" xmlns="http://www.w3.org/2000/svg" xmlns:xlink="http://www.w3.org/1999/xlink"><g id="Layer_2"/><g id="Layer_3"/><g id="Layer_4"/><g id="Layer_5"/><g id="Layer_6"/><g id="Layer_7"/><g id="Layer_8"/><g id="Layer_9"/><g id="Layer_10"/><g id="Layer_11"/><g id="Layer_12"/><g id="Layer_13"/><g id="Layer_14"><g><path d="M31.01,26c0,0.55-0.45,1-1,1C30,27,30,27,29.99,27h-28c-0.55,0-1-0.45-1-1V11c0-0.55,0.45-1,1-1h23    c0.55,0,1,0.45,1,1v9.08c2.76,0.47,4.89,2.83,5,5.7C31,25.85,31.01,25.92,31.01,26z" fill="#16BCD4"/><path d="M30.99,11v15c0,0.55-0.45,1-1,1s-1-0.45-1-1c0-2.21-1.79-4-4-4c-0.55,0-1-0.45-1-1V6c0-0.55,0.45-1,1-1    c2.85,0,5.32,2.02,5.88,4.8C30.95,10.16,30.99,10.57,30.99,11z" fill="#2197F3"/></g><path d="M14.4141,18l2.293-2.293c0.3906-0.3906,0.3906-1.0234,0-1.4141s-1.0234-0.3906-1.4141,0L13,16.5859   l-2.293-2.293c-0.3906-0.3906-1.0234-0.3906-1.4141,0s-0.3906,1.0234,0,1.4141L11.5859,18l-2.293,2.293   c-0.3906,0.3906-0.3906,1.0234,0,1.4141C9.4883,21.9023,9.7441,22,10,22s0.5117-0.0977,0.707-0.293L13,19.4141l2.293,2.293   C15.4883,21.9023,15.7441,22,16,22s0.5117-0.0977,0.707-0.293c0.3906-0.3906,0.3906-1.0234,0-1.4141L14.4141,18z" fill="#3F51B5"/></g><g id="Layer_15"/><g id="Layer_16"/><g id="Layer_17"/><g id="Layer_18"/><g id="Layer_19"/><g id="Maps_11_"/><g id="Maps_10_"/><g id="Maps_9_"/><g id="Maps_8_"/><g id="Maps_7_"/><g id="Maps_6_"/><g id="Maps_5_"/><g id="Maps_4_"/><g id="Maps_3_"/><g id="Maps_2_"/><g id="Maps_1_"/><g id="Maps"/></svg>